<svg width="241" height="63" viewBox="0 0 241 63" fill="none" xmlns="http://www.w3.org/2000/svg">
<path d="M4.6394 13H7.17517C7.40763 13.0019 7.63745 13.0514 7.85146 13.1456C8.06547 13.2397 8.25948 13.3767 8.42236 13.5487C8.58525 13.7207 8.71382 13.9244 8.80072 14.148C8.88762 14.3716 8.93113 14.6108 8.92878 14.8519C8.92878 15.8741 8.14304 16.7037 7.17695 16.7037H4.46439C3.60009 16.7037 3.57151 17.1667 3.57151 17.6296V22.2593H3.58401C3.57667 23.8716 3.57667 25.484 3.58401 27.0963L3.57866 27.8148H5.53038e-06V17.8352C-0.00189389 16.5564 0.485548 15.329 1.35535 14.4225C2.22515 13.516 3.40624 13.0044 4.6394 13ZM0.0321489 29.6667C0.33037 36.8407 4.25546 41.7667 10.7145 42.5278V51.1889C10.7145 57.6907 15.3271 63 21.4291 63C27.531 63 32.1436 57.7093 32.1436 51.1889V44.4815C32.1436 40.6185 33.7579 38.9259 37.5008 38.9259C40.5902 38.9259 42.3456 40.0556 42.7617 42.9815C41.5771 43.4415 40.5876 44.3212 39.9682 45.4649C39.3489 46.6087 39.1396 47.9428 39.3775 49.2311C39.6154 50.5195 40.2851 51.679 41.268 52.5046C42.251 53.3302 43.4839 53.7686 44.7486 53.7423C46.0133 53.7159 47.2282 53.2265 48.1784 52.3606C49.1286 51.4948 49.7528 50.3083 49.9406 49.011C50.1284 47.7138 49.8677 46.3895 49.2045 45.2725C48.5414 44.1555 47.5186 43.3177 46.3171 42.9074C45.6742 38.4741 42.3045 35.25 37.5008 35.2222C32.2722 35.1907 28.5721 38.9259 28.5721 44.6667V51.1889C28.5721 55.4204 25.3899 59.2963 21.4291 59.2963C17.4683 59.2963 14.286 55.4204 14.286 51.1889V42.5278C20.7505 41.7741 24.672 36.8463 24.9791 29.6667H21.3505C20.7933 35.8389 17.3915 38.9259 12.5074 38.9259C7.62339 38.9259 4.23939 35.8389 3.66437 29.6667H0.0321489ZM44.6439 50.963C43.9334 50.963 43.2521 50.6703 42.7498 50.1494C42.2474 49.6284 41.9652 48.9219 41.9652 48.1852C41.9652 47.4485 42.2474 46.7419 42.7498 46.221C43.2521 45.7001 43.9334 45.4074 44.6439 45.4074C45.3543 45.4074 46.0356 45.7001 46.5379 46.221C47.0403 46.7419 47.3225 47.4485 47.3225 48.1852C47.3225 48.9219 47.0403 49.6284 46.5379 50.1494C46.0356 50.6703 45.3543 50.963 44.6439 50.963ZM21.4291 27.8148H25.0006C25.0059 26.1259 25.0131 22.7148 25.0006 22.2907V17.8333C25.002 16.5548 24.5143 15.328 23.6446 14.4219C22.7748 13.5158 21.594 13.0044 20.3612 13H17.8254C17.5929 13.0019 17.3631 13.0514 17.1491 13.1456C16.9351 13.2397 16.7411 13.3767 16.5782 13.5487C16.4153 13.7207 16.2867 13.9244 16.1999 14.148C16.113 14.3716 16.0694 14.6108 16.0718 14.8519C16.0718 15.8741 16.8575 16.7037 17.8236 16.7037H20.5362C21.4005 16.7037 21.4291 17.1667 21.4291 17.6296V27.8148Z" fill="#2F98C2"/>
<path d="M52.1719 7.25H56.1406L61.9844 23.9531L67.8281 7.25H71.7969L63.5781 30H60.3906L52.1719 7.25ZM50.0312 7.25H53.9844L54.7031 23.5312V30H50.0312V7.25ZM69.9844 7.25H73.9531V30H69.2656V23.5312L69.9844 7.25ZM93.3281 26.3438V30H81.2188V26.3438H93.3281ZM82.75 7.25V30H78.0625V7.25H82.75ZM91.75 16.5156V20.0781H81.2188V16.5156H91.75ZM93.3125 7.25V10.9219H81.2188V7.25H93.3125ZM103.047 30H98.0938L98.125 26.3438H103.047C104.276 26.3438 105.312 26.0677 106.156 25.5156C107 24.9531 107.635 24.1354 108.062 23.0625C108.5 21.9896 108.719 20.6927 108.719 19.1719V18.0625C108.719 16.8958 108.594 15.8698 108.344 14.9844C108.104 14.099 107.745 13.3542 107.266 12.75C106.786 12.1458 106.198 11.6927 105.5 11.3906C104.802 11.0781 104 10.9219 103.094 10.9219H98V7.25H103.094C104.615 7.25 106.005 7.51042 107.266 8.03125C108.536 8.54167 109.635 9.27604 110.562 10.2344C111.49 11.1927 112.203 12.3385 112.703 13.6719C113.214 14.9948 113.469 16.4688 113.469 18.0938V19.1719C113.469 20.7865 113.214 22.2604 112.703 23.5938C112.203 24.9271 111.49 26.0729 110.562 27.0312C109.646 27.9792 108.547 28.7135 107.266 29.2344C105.995 29.7448 104.589 30 103.047 30ZM100.75 7.25V30H96.0625V7.25H100.75ZM121.562 7.25V30H116.875V7.25H121.562ZM135.188 7.25L126.172 18.4844L120.969 24.0781L120.125 19.6406L123.641 14.8281L129.438 7.25H135.188ZM129.859 30L123.156 19.4844L126.625 16.5781L135.406 30H129.859ZM142.203 7.25V30H137.531V7.25H142.203ZM156.297 7.25V30H151.625V7.25H156.297ZM163.297 7.25V10.9219H144.734V7.25H163.297ZM162.062 27.8281C162.062 27.1615 162.292 26.6042 162.75 26.1562C163.219 25.7083 163.839 25.4844 164.609 25.4844C165.38 25.4844 165.995 25.7083 166.453 26.1562C166.922 26.6042 167.156 27.1615 167.156 27.8281C167.156 28.4948 166.922 29.0521 166.453 29.5C165.995 29.9479 165.38 30.1719 164.609 30.1719C163.839 30.1719 163.219 29.9479 162.75 29.5C162.292 29.0521 162.062 28.4948 162.062 27.8281ZM184.594 22.4531H189.266C189.172 23.9844 188.75 25.3438 188 26.5312C187.26 27.7188 186.224 28.6458 184.891 29.3125C183.568 29.9792 181.974 30.3125 180.109 30.3125C178.651 30.3125 177.344 30.0625 176.188 29.5625C175.031 29.0521 174.042 28.3229 173.219 27.375C172.406 26.4271 171.786 25.2812 171.359 23.9375C170.932 22.5938 170.719 21.0885 170.719 19.4219V17.8438C170.719 16.1771 170.938 14.6719 171.375 13.3281C171.823 11.974 172.458 10.8229 173.281 9.875C174.115 8.92708 175.109 8.19792 176.266 7.6875C177.422 7.17708 178.714 6.92188 180.141 6.92188C182.036 6.92188 183.635 7.26562 184.938 7.95312C186.25 8.64062 187.266 9.58854 187.984 10.7969C188.714 12.0052 189.151 13.3802 189.297 14.9219H184.609C184.557 14.0052 184.375 13.2292 184.062 12.5938C183.75 11.9479 183.276 11.4635 182.641 11.1406C182.016 10.8073 181.182 10.6406 180.141 10.6406C179.359 10.6406 178.677 10.7865 178.094 11.0781C177.51 11.3698 177.021 11.8125 176.625 12.4062C176.229 13 175.932 13.75 175.734 14.6562C175.547 15.5521 175.453 16.6042 175.453 17.8125V19.4219C175.453 20.599 175.542 21.6354 175.719 22.5312C175.896 23.4167 176.167 24.1667 176.531 24.7812C176.906 25.3854 177.385 25.8438 177.969 26.1562C178.562 26.4583 179.276 26.6094 180.109 26.6094C181.089 26.6094 181.896 26.4531 182.531 26.1406C183.167 25.8281 183.651 25.3646 183.984 24.75C184.328 24.1354 184.531 23.3698 184.594 22.4531ZM211.031 18.0938V19.1719C211.031 20.901 210.797 22.4531 210.328 23.8281C209.859 25.2031 209.198 26.375 208.344 27.3438C207.49 28.3021 206.469 29.0365 205.281 29.5469C204.104 30.0573 202.797 30.3125 201.359 30.3125C199.932 30.3125 198.625 30.0573 197.438 29.5469C196.26 29.0365 195.24 28.3021 194.375 27.3438C193.51 26.375 192.839 25.2031 192.359 23.8281C191.891 22.4531 191.656 20.901 191.656 19.1719V18.0938C191.656 16.3542 191.891 14.8021 192.359 13.4375C192.828 12.0625 193.49 10.8906 194.344 9.92188C195.208 8.95312 196.229 8.21354 197.406 7.70312C198.594 7.19271 199.901 6.9375 201.328 6.9375C202.766 6.9375 204.073 7.19271 205.25 7.70312C206.438 8.21354 207.458 8.95312 208.312 9.92188C209.177 10.8906 209.844 12.0625 210.312 13.4375C210.792 14.8021 211.031 16.3542 211.031 18.0938ZM206.297 19.1719V18.0625C206.297 16.8542 206.188 15.7917 205.969 14.875C205.75 13.9583 205.427 13.1875 205 12.5625C204.573 11.9375 204.052 11.4688 203.438 11.1562C202.823 10.8333 202.12 10.6719 201.328 10.6719C200.536 10.6719 199.833 10.8333 199.219 11.1562C198.615 11.4688 198.099 11.9375 197.672 12.5625C197.255 13.1875 196.938 13.9583 196.719 14.875C196.5 15.7917 196.391 16.8542 196.391 18.0625V19.1719C196.391 20.3698 196.5 21.4323 196.719 22.3594C196.938 23.276 197.26 24.0521 197.688 24.6875C198.115 25.3125 198.635 25.7865 199.25 26.1094C199.865 26.4323 200.568 26.5938 201.359 26.5938C202.151 26.5938 202.854 26.4323 203.469 26.1094C204.083 25.7865 204.599 25.3125 205.016 24.6875C205.432 24.0521 205.75 23.276 205.969 22.3594C206.188 21.4323 206.297 20.3698 206.297 19.1719ZM216.547 7.25H220.516L226.359 23.9531L232.203 7.25H236.172L227.953 30H224.766L216.547 7.25ZM214.406 7.25H218.359L219.078 23.5312V30H214.406V7.25ZM234.359 7.25H238.328V30H233.641V23.5312L234.359 7.25Z" fill="#2F98C2"/>
<path d="M83.9375 46.8945V48.4277H76.2422V46.8945H83.9375ZM76.5352 40.7812V55H74.6504V40.7812H76.5352ZM85.5781 40.7812V55H83.7031V40.7812H85.5781ZM93.0391 55.1953C92.3034 55.1953 91.6361 55.0716 91.0371 54.8242C90.4447 54.5703 89.9336 54.2155 89.5039 53.7598C89.0807 53.304 88.7552 52.7637 88.5273 52.1387C88.2995 51.5137 88.1855 50.8301 88.1855 50.0879V49.6777C88.1855 48.8184 88.3125 48.0534 88.5664 47.3828C88.8203 46.7057 89.1654 46.1328 89.6016 45.6641C90.0378 45.1953 90.5326 44.8405 91.0859 44.5996C91.6393 44.3587 92.2122 44.2383 92.8047 44.2383C93.5599 44.2383 94.2109 44.3685 94.7578 44.6289C95.3112 44.8893 95.7637 45.2539 96.1152 45.7227C96.4668 46.1849 96.7272 46.7318 96.8965 47.3633C97.0658 47.9883 97.1504 48.6719 97.1504 49.4141V50.2246H89.2598V48.75H95.3438V48.6133C95.3177 48.1445 95.2201 47.6888 95.0508 47.2461C94.888 46.8034 94.6276 46.4388 94.2695 46.1523C93.9115 45.8659 93.4232 45.7227 92.8047 45.7227C92.3945 45.7227 92.0169 45.8105 91.6719 45.9863C91.3268 46.1556 91.0306 46.4095 90.7832 46.748C90.5358 47.0866 90.3438 47.5 90.207 47.9883C90.0703 48.4766 90.002 49.0397 90.002 49.6777V50.0879C90.002 50.5892 90.0703 51.0612 90.207 51.5039C90.3503 51.9401 90.5553 52.3242 90.8223 52.6562C91.0957 52.9883 91.4245 53.2487 91.8086 53.4375C92.1992 53.6263 92.6419 53.7207 93.1367 53.7207C93.7747 53.7207 94.3151 53.5905 94.7578 53.3301C95.2005 53.0697 95.5879 52.7214 95.9199 52.2852L97.0137 53.1543C96.7858 53.4993 96.4961 53.8281 96.1445 54.1406C95.793 54.4531 95.36 54.707 94.8457 54.9023C94.3379 55.0977 93.7357 55.1953 93.0391 55.1953ZM105.49 53.1934V47.7539C105.49 47.3372 105.406 46.9759 105.236 46.6699C105.074 46.3574 104.826 46.1165 104.494 45.9473C104.162 45.778 103.752 45.6934 103.264 45.6934C102.808 45.6934 102.408 45.7715 102.062 45.9277C101.724 46.084 101.457 46.2891 101.262 46.543C101.073 46.7969 100.979 47.0703 100.979 47.3633H99.1719C99.1719 46.9857 99.2695 46.6113 99.4648 46.2402C99.6602 45.8691 99.9401 45.5339 100.305 45.2344C100.676 44.9284 101.118 44.6875 101.633 44.5117C102.154 44.3294 102.733 44.2383 103.371 44.2383C104.139 44.2383 104.816 44.3685 105.402 44.6289C105.995 44.8893 106.457 45.2832 106.789 45.8105C107.128 46.3314 107.297 46.9857 107.297 47.7734V52.6953C107.297 53.0469 107.326 53.4212 107.385 53.8184C107.45 54.2155 107.544 54.5573 107.668 54.8438V55H105.783C105.692 54.7917 105.62 54.515 105.568 54.1699C105.516 53.8184 105.49 53.4928 105.49 53.1934ZM105.803 48.5938L105.822 49.8633H103.996C103.482 49.8633 103.023 49.9056 102.619 49.9902C102.215 50.0684 101.877 50.1888 101.604 50.3516C101.33 50.5143 101.122 50.7194 100.979 50.9668C100.835 51.2077 100.764 51.4909 100.764 51.8164C100.764 52.1484 100.839 52.4512 100.988 52.7246C101.138 52.998 101.363 53.2161 101.662 53.3789C101.968 53.5352 102.342 53.6133 102.785 53.6133C103.339 53.6133 103.827 53.4961 104.25 53.2617C104.673 53.0273 105.008 52.7409 105.256 52.4023C105.51 52.0638 105.646 51.735 105.666 51.416L106.438 52.2852C106.392 52.5586 106.268 52.8613 106.066 53.1934C105.865 53.5254 105.594 53.8444 105.256 54.1504C104.924 54.4499 104.527 54.7005 104.064 54.9023C103.609 55.0977 103.094 55.1953 102.521 55.1953C101.805 55.1953 101.177 55.0553 100.637 54.7754C100.103 54.4954 99.6862 54.1211 99.3867 53.6523C99.0938 53.1771 98.9473 52.6465 98.9473 52.0605C98.9473 51.4941 99.0579 50.9961 99.2793 50.5664C99.5007 50.1302 99.8197 49.7689 100.236 49.4824C100.653 49.1895 101.154 48.9681 101.74 48.8184C102.326 48.6686 102.98 48.5938 103.703 48.5938H105.803ZM112.102 40V55H110.285V40H112.102ZM119.426 44.4336V45.8203H113.713V44.4336H119.426ZM115.646 41.8652H117.453V52.3828C117.453 52.7409 117.508 53.0111 117.619 53.1934C117.73 53.3757 117.873 53.4961 118.049 53.5547C118.225 53.6133 118.413 53.6426 118.615 53.6426C118.765 53.6426 118.921 53.6296 119.084 53.6035C119.253 53.571 119.38 53.5449 119.465 53.5254L119.475 55C119.331 55.0456 119.143 55.0879 118.908 55.127C118.68 55.1725 118.404 55.1953 118.078 55.1953C117.635 55.1953 117.229 55.1074 116.857 54.9316C116.486 54.7559 116.19 54.4629 115.969 54.0527C115.754 53.6361 115.646 53.0762 115.646 52.373V41.8652ZM123.352 40V55H121.545V40H123.352ZM122.922 49.3164L122.17 49.2871C122.176 48.5645 122.284 47.8971 122.492 47.2852C122.701 46.6667 122.993 46.1296 123.371 45.6738C123.749 45.2181 124.198 44.8665 124.719 44.6191C125.246 44.3652 125.829 44.2383 126.467 44.2383C126.988 44.2383 127.456 44.3099 127.873 44.4531C128.29 44.5898 128.645 44.8112 128.938 45.1172C129.237 45.4232 129.465 45.8203 129.621 46.3086C129.777 46.7904 129.855 47.3796 129.855 48.0762V55H128.039V48.0566C128.039 47.5033 127.958 47.0605 127.795 46.7285C127.632 46.39 127.395 46.1458 127.082 45.9961C126.77 45.8398 126.385 45.7617 125.93 45.7617C125.48 45.7617 125.07 45.8561 124.699 46.0449C124.335 46.2337 124.019 46.4941 123.752 46.8262C123.492 47.1582 123.286 47.5391 123.137 47.9688C122.993 48.3919 122.922 48.8411 122.922 49.3164ZM139.484 44.4336V55H137.668V44.4336H139.484ZM137.531 41.6309C137.531 41.3379 137.619 41.0905 137.795 40.8887C137.977 40.6868 138.244 40.5859 138.596 40.5859C138.941 40.5859 139.204 40.6868 139.387 40.8887C139.576 41.0905 139.67 41.3379 139.67 41.6309C139.67 41.9108 139.576 42.1517 139.387 42.3535C139.204 42.5488 138.941 42.6465 138.596 42.6465C138.244 42.6465 137.977 42.5488 137.795 42.3535C137.619 42.1517 137.531 41.9108 137.531 41.6309ZM148.537 52.1973C148.537 51.9368 148.479 51.696 148.361 51.4746C148.251 51.2467 148.02 51.0417 147.668 50.8594C147.323 50.6706 146.802 50.5078 146.105 50.3711C145.52 50.2474 144.989 50.1009 144.514 49.9316C144.045 49.7624 143.645 49.5573 143.312 49.3164C142.987 49.0755 142.736 48.7923 142.561 48.4668C142.385 48.1413 142.297 47.7604 142.297 47.3242C142.297 46.9076 142.388 46.5137 142.57 46.1426C142.759 45.7715 143.023 45.4427 143.361 45.1562C143.706 44.8698 144.12 44.6452 144.602 44.4824C145.083 44.3197 145.62 44.2383 146.213 44.2383C147.059 44.2383 147.782 44.388 148.381 44.6875C148.98 44.987 149.439 45.3874 149.758 45.8887C150.077 46.3835 150.236 46.9336 150.236 47.5391H148.43C148.43 47.2461 148.342 46.9629 148.166 46.6895C147.997 46.4095 147.746 46.1784 147.414 45.9961C147.089 45.8138 146.688 45.7227 146.213 45.7227C145.712 45.7227 145.305 45.8008 144.992 45.957C144.686 46.1068 144.462 46.2988 144.318 46.5332C144.182 46.7676 144.113 47.015 144.113 47.2754C144.113 47.4707 144.146 47.6465 144.211 47.8027C144.283 47.9525 144.406 48.0924 144.582 48.2227C144.758 48.3464 145.005 48.4635 145.324 48.5742C145.643 48.6849 146.05 48.7956 146.545 48.9062C147.411 49.1016 148.124 49.3359 148.684 49.6094C149.243 49.8828 149.66 50.2181 149.934 50.6152C150.207 51.0124 150.344 51.4941 150.344 52.0605C150.344 52.5228 150.246 52.946 150.051 53.3301C149.862 53.7142 149.585 54.0462 149.221 54.3262C148.863 54.5996 148.433 54.8145 147.932 54.9707C147.437 55.1204 146.88 55.1953 146.262 55.1953C145.331 55.1953 144.543 55.0293 143.898 54.6973C143.254 54.3652 142.766 53.9355 142.434 53.4082C142.102 52.8809 141.936 52.3242 141.936 51.7383H143.752C143.778 52.2331 143.921 52.627 144.182 52.9199C144.442 53.2064 144.761 53.4115 145.139 53.5352C145.516 53.6523 145.891 53.7109 146.262 53.7109C146.757 53.7109 147.17 53.6458 147.502 53.5156C147.84 53.3854 148.098 53.2064 148.273 52.9785C148.449 52.7507 148.537 52.4902 148.537 52.1973ZM160.354 53.125L163.068 44.4336H164.26L164.025 46.1621L161.262 55H160.1L160.354 53.125ZM158.527 44.4336L160.842 53.2227L161.008 55H159.787L156.721 44.4336H158.527ZM166.857 53.1543L169.064 44.4336H170.861L167.795 55H166.584L166.857 53.1543ZM164.523 44.4336L167.18 52.9785L167.482 55H166.33L163.488 46.1426L163.254 44.4336H164.523ZM177.102 55.1953C176.366 55.1953 175.699 55.0716 175.1 54.8242C174.507 54.5703 173.996 54.2155 173.566 53.7598C173.143 53.304 172.818 52.7637 172.59 52.1387C172.362 51.5137 172.248 50.8301 172.248 50.0879V49.6777C172.248 48.8184 172.375 48.0534 172.629 47.3828C172.883 46.7057 173.228 46.1328 173.664 45.6641C174.1 45.1953 174.595 44.8405 175.148 44.5996C175.702 44.3587 176.275 44.2383 176.867 44.2383C177.622 44.2383 178.273 44.3685 178.82 44.6289C179.374 44.8893 179.826 45.2539 180.178 45.7227C180.529 46.1849 180.79 46.7318 180.959 47.3633C181.128 47.9883 181.213 48.6719 181.213 49.4141V50.2246H173.322V48.75H179.406V48.6133C179.38 48.1445 179.283 47.6888 179.113 47.2461C178.951 46.8034 178.69 46.4388 178.332 46.1523C177.974 45.8659 177.486 45.7227 176.867 45.7227C176.457 45.7227 176.079 45.8105 175.734 45.9863C175.389 46.1556 175.093 46.4095 174.846 46.748C174.598 47.0866 174.406 47.5 174.27 47.9883C174.133 48.4766 174.064 49.0397 174.064 49.6777V50.0879C174.064 50.5892 174.133 51.0612 174.27 51.5039C174.413 51.9401 174.618 52.3242 174.885 52.6562C175.158 52.9883 175.487 53.2487 175.871 53.4375C176.262 53.6263 176.704 53.7207 177.199 53.7207C177.837 53.7207 178.378 53.5905 178.82 53.3301C179.263 53.0697 179.65 52.7214 179.982 52.2852L181.076 53.1543C180.848 53.4993 180.559 53.8281 180.207 54.1406C179.855 54.4531 179.423 54.707 178.908 54.9023C178.4 55.0977 177.798 55.1953 177.102 55.1953ZM189.553 53.1934V47.7539C189.553 47.3372 189.468 46.9759 189.299 46.6699C189.136 46.3574 188.889 46.1165 188.557 45.9473C188.225 45.778 187.814 45.6934 187.326 45.6934C186.87 45.6934 186.47 45.7715 186.125 45.9277C185.786 46.084 185.52 46.2891 185.324 46.543C185.135 46.7969 185.041 47.0703 185.041 47.3633H183.234C183.234 46.9857 183.332 46.6113 183.527 46.2402C183.723 45.8691 184.003 45.5339 184.367 45.2344C184.738 44.9284 185.181 44.6875 185.695 44.5117C186.216 44.3294 186.796 44.2383 187.434 44.2383C188.202 44.2383 188.879 44.3685 189.465 44.6289C190.057 44.8893 190.52 45.2832 190.852 45.8105C191.19 46.3314 191.359 46.9857 191.359 47.7734V52.6953C191.359 53.0469 191.389 53.4212 191.447 53.8184C191.512 54.2155 191.607 54.5573 191.73 54.8438V55H189.846C189.755 54.7917 189.683 54.515 189.631 54.1699C189.579 53.8184 189.553 53.4928 189.553 53.1934ZM189.865 48.5938L189.885 49.8633H188.059C187.544 49.8633 187.085 49.9056 186.682 49.9902C186.278 50.0684 185.939 50.1888 185.666 50.3516C185.393 50.5143 185.184 50.7194 185.041 50.9668C184.898 51.2077 184.826 51.4909 184.826 51.8164C184.826 52.1484 184.901 52.4512 185.051 52.7246C185.201 52.998 185.425 53.2161 185.725 53.3789C186.031 53.5352 186.405 53.6133 186.848 53.6133C187.401 53.6133 187.889 53.4961 188.312 53.2617C188.736 53.0273 189.071 52.7409 189.318 52.4023C189.572 52.0638 189.709 51.735 189.729 51.416L190.5 52.2852C190.454 52.5586 190.331 52.8613 190.129 53.1934C189.927 53.5254 189.657 53.8444 189.318 54.1504C188.986 54.4499 188.589 54.7005 188.127 54.9023C187.671 55.0977 187.157 55.1953 186.584 55.1953C185.868 55.1953 185.24 55.0553 184.699 54.7754C184.165 54.4954 183.749 54.1211 183.449 53.6523C183.156 53.1771 183.01 52.6465 183.01 52.0605C183.01 51.4941 183.12 50.9961 183.342 50.5664C183.563 50.1302 183.882 49.7689 184.299 49.4824C184.715 49.1895 185.217 48.9681 185.803 48.8184C186.389 48.6686 187.043 48.5938 187.766 48.5938H189.865ZM196.164 40V55H194.348V40H196.164ZM203.488 44.4336V45.8203H197.775V44.4336H203.488ZM199.709 41.8652H201.516V52.3828C201.516 52.7409 201.571 53.0111 201.682 53.1934C201.792 53.3757 201.936 53.4961 202.111 53.5547C202.287 53.6133 202.476 53.6426 202.678 53.6426C202.827 53.6426 202.984 53.6296 203.146 53.6035C203.316 53.571 203.443 53.5449 203.527 53.5254L203.537 55C203.394 55.0456 203.205 55.0879 202.971 55.127C202.743 55.1725 202.466 55.1953 202.141 55.1953C201.698 55.1953 201.291 55.1074 200.92 54.9316C200.549 54.7559 200.253 54.4629 200.031 54.0527C199.816 53.6361 199.709 53.0762 199.709 52.373V41.8652ZM207.414 40V55H205.607V40H207.414ZM206.984 49.3164L206.232 49.2871C206.239 48.5645 206.346 47.8971 206.555 47.2852C206.763 46.6667 207.056 46.1296 207.434 45.6738C207.811 45.2181 208.26 44.8665 208.781 44.6191C209.309 44.3652 209.891 44.2383 210.529 44.2383C211.05 44.2383 211.519 44.3099 211.936 44.4531C212.352 44.5898 212.707 44.8112 213 45.1172C213.299 45.4232 213.527 45.8203 213.684 46.3086C213.84 46.7904 213.918 47.3796 213.918 48.0762V55H212.102V48.0566C212.102 47.5033 212.02 47.0605 211.857 46.7285C211.695 46.39 211.457 46.1458 211.145 45.9961C210.832 45.8398 210.448 45.7617 209.992 45.7617C209.543 45.7617 209.133 45.8561 208.762 46.0449C208.397 46.2337 208.081 46.4941 207.814 46.8262C207.554 47.1582 207.349 47.5391 207.199 47.9688C207.056 48.3919 206.984 48.8411 206.984 49.3164Z" fill="#2F98C2"/>
</svg>
